<svg width="1441" height="604" viewBox="0 0 1441 604" fill="none" xmlns="http://www.w3.org/2000/svg">
<g clip-path="url(#clip0_2066_752)">
<rect width="1440" height="604" transform="translate(0.251465)" fill="url(#paint0_linear_2066_752)"/>
<rect x="187.047" y="334.496" width="100.815" height="154.613" rx="50.4074" transform="rotate(43.0279 187.047 334.496)" stroke="#26A3DD" stroke-width="2"/>
<path d="M138.11 387.209C138.11 387.209 148.658 414.802 165.095 430.385C182.026 446.437 211.522 455.734 211.522 455.734" stroke="#26A3DD" stroke-width="2"/>
<path d="M165.842 431.085L185.023 410.536M223.761 369.035L212.481 381.119" stroke="#26A3DD" stroke-width="2"/>
<rect x="204.466" y="373.652" width="21.9104" height="39.8432" rx="10.9552" transform="rotate(43.0279 204.466 373.652)" stroke="#26A3DD" stroke-width="2"/>
<path d="M230.664 368.935L227.68 372.132L220.402 365.339L223.387 362.142C225.262 360.133 228.412 360.024 230.422 361.9C232.431 363.776 232.54 366.926 230.664 368.935Z" stroke="#26A3DD" stroke-width="2"/>
<path d="M1248.11 256.584C1242.74 263.793 1240.44 272.446 1239.38 277.461L1238.9 280.135V280.135C1238.8 280.649 1238.16 280.826 1237.81 280.432L1237.24 279.78L1235.92 278.218C1232.47 274.377 1226.1 268.2 1217.89 264.754C1205.35 259.396 1196.45 251.45 1193.18 239.393C1189.02 224.01 1196.51 204.003 1216.24 198.669C1235.97 193.335 1252.46 206.86 1256.63 222.243C1259.9 234.3 1256.27 245.633 1248.11 256.584Z" stroke="#26A3DD" stroke-width="2"/>
<path d="M1206.81 230.93C1206.81 220.414 1215.34 211.887 1225.86 211.887C1236.37 211.887 1244.9 220.414 1244.9 230.93C1244.9 241.446 1236.37 249.973 1225.86 249.973C1215.34 249.973 1206.81 241.446 1206.81 230.93Z" stroke="#26A3DD" stroke-width="2" stroke-linecap="round" stroke-linejoin="round"/>
<path d="M1217.47 231.676L1222.55 236.757L1234.24 225.068" stroke="#26A3DD" stroke-width="2" stroke-linecap="round" stroke-linejoin="round"/>
<path d="M1238.68 280.608L1245.47 310.706" stroke="#26A3DD" stroke-width="2" stroke-linecap="round"/>
<path d="M1227.03 330.041C1225.71 330.809 1221.32 332.02 1217.67 332.925C1215.35 333.502 1213.04 332.019 1212.33 329.731C1209.47 320.433 1202.09 303.166 1187.71 280.628C1176.89 263.663 1164.43 245.865 1166.99 225.906C1167.6 221.114 1168.82 216.177 1170.82 211.282C1184.05 178.916 1230 166.166 1258.5 186.427C1264.1 190.407 1269.2 195.644 1273.32 202.44C1283.43 219.115 1281.1 239.892 1279.71 259.34C1279.29 265.22 1278.99 271.129 1278.89 276.533" stroke="#26A3DD" stroke-width="2" stroke-linecap="round" stroke-linejoin="round"/>
<path d="M1288.61 324.072L1248.04 358.798C1244.62 361.726 1239.51 361.677 1236.86 358.035C1232.11 351.494 1228.47 343.178 1226.31 337.051C1225.24 334.029 1226.11 330.709 1228.35 328.414L1277.99 277.492C1281.96 273.419 1286.48 269.885 1291.6 267.416C1313.5 256.871 1329.36 256.34 1353.76 266.938C1359.99 269.643 1365.08 274.381 1368.72 280.119V280.119C1378.71 295.905 1382.8 314.719 1380.26 333.23L1378.6 345.318" stroke="#26A3DD" stroke-width="2" stroke-linecap="round"/>
<path d="M1232.62 351.361L1222.06 354.299C1220.03 354.864 1218.84 356.968 1219.41 358.999V358.999C1219.97 361.015 1222.05 362.205 1224.07 361.668L1225.19 361.372C1226.08 361.136 1226.99 361.665 1227.23 362.552V362.552C1227.46 363.44 1226.93 364.351 1226.05 364.586L1224.44 365.013C1222.69 365.476 1221.65 367.265 1222.12 369.008V369.008C1222.58 370.752 1224.37 371.79 1226.12 371.328L1227.44 370.977C1228.49 370.699 1229.56 371.322 1229.84 372.368V372.368C1230.12 373.414 1229.5 374.488 1228.45 374.765L1228.07 374.865C1225.81 375.467 1224.46 377.791 1225.06 380.056L1227.34 388.608C1227.73 390.089 1228.87 391.273 1230.4 391.374C1243.07 392.205 1280.15 382.067 1291.4 374.347C1292.67 373.475 1293.09 371.873 1292.7 370.383L1290.57 362.355C1289.93 359.926 1287.43 358.481 1285.01 359.133L1284.53 359.26C1283.45 359.55 1282.34 358.907 1282.05 357.825V357.825C1281.77 356.747 1282.4 355.641 1283.48 355.352L1285.15 354.905C1286.92 354.428 1287.98 352.602 1287.5 350.823V350.823C1287.03 349.038 1285.19 347.977 1283.41 348.456L1281.37 349.003C1280.51 349.234 1279.63 348.723 1279.4 347.863V347.863C1279.17 347.008 1279.68 346.13 1280.53 345.9L1282.17 345.462C1284.18 344.92 1285.38 342.848 1284.84 340.83V340.83C1284.3 338.804 1282.22 337.6 1280.2 338.144L1277.03 338.993L1268.41 341.393" stroke="#26A3DD" stroke-width="2" stroke-linecap="round"/>
<path d="M1226.77 338.051L1220.96 339.669C1217.14 340.734 1214.9 344.701 1215.96 348.529V348.529C1217.03 352.357 1221 354.596 1224.82 353.53L1232.77 351.318M1268.67 341.323L1276.56 339.126C1280.52 338.022 1282.84 333.913 1281.74 329.947V329.947" stroke="#26A3DD" stroke-width="2"/>
<path d="M1343.42 262.699L1337.83 256.578C1336.13 254.709 1333.71 253.644 1331.18 253.644L1314.38 253.644C1312.07 253.644 1309.84 254.538 1308.16 256.139L1301.3 262.699" stroke="#26A3DD" stroke-width="2" stroke-linecap="round"/>
<path d="M1350.58 215.205L1341.06 215.24L1341.06 208.728M1350.58 215.205L1332.96 219.807M1350.58 215.205C1350.58 215.205 1351.6 222.876 1341.06 222.876M1326.44 195.228C1324.29 195.398 1317.3 196.455 1315.28 197.512M1310.5 244.354C1310.5 244.354 1307.53 235.831 1306.34 215.035C1304.6 184.829 1342.42 200.989 1343.45 190.863C1355.36 205.114 1341.06 208.727 1341.06 208.727M1341.06 208.727L1341.06 237.024C1341.06 241.081 1338.29 244.32 1333.72 244.354M1341.06 208.727L1335.59 211.114M1336.41 222.671C1336.41 222.671 1330.27 216.262 1330.27 224.137C1330.27 232.012 1331.8 235.183 1335.66 231.535" stroke="#26A3DD" stroke-width="2" stroke-linecap="round" stroke-linejoin="round"/>
<path d="M1378.35 346.447L1363.14 411.144C1359.96 424.636 1340.67 425.304 1337.08 411.936C1335.38 405.671 1337.95 398.102 1346.94 393.294C1346.94 393.294 1401.39 344.419 1443.89 327.419C1489.83 309.044 1569.23 308.941 1569.23 308.941" stroke="#26A3DD" stroke-width="2" stroke-linecap="round" stroke-linejoin="round"/>
<path d="M210.301 -2.2638C174.708 51.5481 91.7198 135.486 46.1879 135.823C2.49408 136.144 43.5397 71.3053 88.2963 74.8489C133.053 78.3925 113.284 134.58 91.9257 169.328C70.5722 204.072 22.558 243.897 -18.3563 211.367" stroke="#26A3DD" stroke-width="2" stroke-linecap="round" stroke-linejoin="round"/>
<path d="M227.177 365.044C227.177 365.044 279.859 298.813 337.178 290.215C394.498 281.617 411.341 306.481 465.421 352.367M1265.31 386.154C1265.31 386.154 1276.43 430.242 1241.66 465.012C1182.09 524.582 1107.39 518.549 985.913 488.18" stroke="#26A3DD" stroke-width="2"/>
<path d="M131.513 324.479L158.768 350.149" stroke="#26A3DD" stroke-width="2"/>
<path d="M157.519 321.24L168.815 343.338" stroke="#26A3DD" stroke-width="2"/>
<path d="M174.379 297.952L179.381 340.737" stroke="#26A3DD" stroke-width="2"/>
<path d="M196.837 313.005L190.797 338.971" stroke="#26A3DD" stroke-width="2"/>
<path d="M223.761 312.432L203.293 342.343" stroke="#26A3DD" stroke-width="2"/>
</g>
<defs>
<linearGradient id="paint0_linear_2066_752" x1="498.439" y1="539.196" x2="1231.43" y2="-504.972" gradientUnits="userSpaceOnUse">
<stop stop-color="#121B50"/>
<stop offset="0.189528" stop-color="#121B50"/>
<stop offset="1" stop-color="#1A89C9"/>
</linearGradient>
<clipPath id="clip0_2066_752">
<rect width="1440" height="604" fill="white" transform="translate(0.251465)"/>
</clipPath>
</defs>
</svg>
